<?xml version="1.0" ?>
<!-- Uploaded to: SVG Repo, www.svgrepo.com, Generator: SVG Repo Mixer Tools -->
<svg fill="#000000" width="800px" height="800px" viewBox="0 0 100 100" enable-background="new 0 0 100 100" id="Layer_1" version="1.1" xml:space="preserve" xmlns="http://www.w3.org/2000/svg" xmlns:xlink="http://www.w3.org/1999/xlink">
<g>
<path d="M88.786,65.905V34.095C93.252,31.66,96,27.069,96,21.966c0-4.524-2.231-8.776-5.968-11.375   c-0.306-0.211-0.704-0.235-1.034-0.065c-0.33,0.173-0.537,0.515-0.537,0.887v9.048l-5.286,3.84V13.52   c0-1.714-1.394-3.107-3.106-3.107h-5.189H7.106C5.394,10.412,4,11.806,4,13.52V86.48c0,1.714,1.394,3.107,3.106,3.107h67.772h5.189   c1.713,0,3.106-1.394,3.106-3.107V75.7l5.286,3.84v9.048c0,0.372,0.207,0.714,0.537,0.887c0.146,0.075,0.305,0.113,0.463,0.113   c0.2,0,0.4-0.061,0.571-0.179C93.769,86.81,96,82.557,96,78.034C96,72.931,93.252,68.34,88.786,65.905z M81.175,13.52v10.781   l-5.296-3.841v-8.048h4.189C80.679,12.412,81.175,12.909,81.175,13.52z M7.106,87.588C6.496,87.588,6,87.091,6,86.48V13.52   c0-0.61,0.496-1.107,1.106-1.107h65.074c-0.077,0.08-0.143,0.169-0.218,0.251c-0.118,0.13-0.231,0.263-0.344,0.396   c-0.226,0.268-0.44,0.544-0.645,0.827c-0.096,0.133-0.194,0.263-0.285,0.4c-0.244,0.364-0.47,0.739-0.678,1.124   c-0.031,0.058-0.069,0.113-0.1,0.172c-0.232,0.445-0.436,0.904-0.618,1.372c-0.053,0.136-0.096,0.276-0.145,0.415   c-0.121,0.341-0.231,0.686-0.325,1.037c-0.045,0.168-0.086,0.336-0.125,0.506c-0.079,0.347-0.143,0.698-0.195,1.052   c-0.023,0.156-0.051,0.311-0.069,0.469c-0.057,0.507-0.094,1.018-0.094,1.534c0,5.104,2.748,9.694,7.214,12.129v9.51   C72.573,28.681,59.375,17.4,43.588,17.4c-17.976,0-32.6,14.624-32.6,32.6s14.624,32.6,32.6,32.6   c15.787,0,28.985-11.281,31.966-26.204v9.51c-4.466,2.435-7.214,7.025-7.214,12.129c0,0.516,0.037,1.027,0.094,1.535   c0.018,0.157,0.045,0.31,0.068,0.466c0.052,0.356,0.116,0.708,0.196,1.057c0.038,0.168,0.079,0.334,0.123,0.5   c0.095,0.354,0.206,0.702,0.328,1.047c0.048,0.135,0.089,0.271,0.141,0.404c0.183,0.47,0.388,0.931,0.621,1.378   c0.027,0.052,0.06,0.1,0.088,0.152c0.211,0.392,0.442,0.773,0.69,1.144c0.089,0.133,0.185,0.261,0.279,0.391   c0.207,0.287,0.424,0.567,0.653,0.839c0.11,0.131,0.22,0.26,0.336,0.387c0.076,0.084,0.144,0.174,0.222,0.256H7.106z M74.188,50   c0,16.873-13.727,30.6-30.6,30.6s-30.6-13.727-30.6-30.6s13.727-30.6,30.6-30.6S74.188,33.127,74.188,50z M81.175,86.48   c0,0.61-0.496,1.107-1.106,1.107h-4.189V79.54l5.296-3.841V86.48z M90.461,86.462V79.03c0-0.32-0.153-0.621-0.412-0.81   l-7.286-5.292c-0.02-0.014-0.044-0.02-0.064-0.033c-0.024-0.015-0.044-0.035-0.069-0.049c-0.027-0.014-0.056-0.018-0.084-0.029   c-0.04-0.016-0.079-0.031-0.12-0.041c-0.056-0.014-0.111-0.022-0.168-0.026c-0.028-0.002-0.054-0.013-0.082-0.013   c-0.013,0-0.025,0.005-0.037,0.006c-0.063,0.002-0.124,0.015-0.185,0.029c-0.034,0.008-0.067,0.01-0.1,0.022   c-0.093,0.032-0.182,0.075-0.265,0.134l-7.296,5.292c-0.26,0.188-0.413,0.489-0.413,0.81v7.402   c-0.123-0.121-0.248-0.241-0.364-0.367c-0.101-0.109-0.205-0.216-0.302-0.329c-0.233-0.271-0.451-0.554-0.658-0.844   c-0.047-0.066-0.101-0.128-0.146-0.195c-0.247-0.361-0.471-0.735-0.676-1.12c-0.055-0.103-0.1-0.211-0.152-0.315   c-0.142-0.287-0.276-0.578-0.395-0.875c-0.057-0.143-0.107-0.288-0.158-0.433c-0.096-0.272-0.183-0.547-0.259-0.826   c-0.042-0.153-0.083-0.306-0.118-0.461c-0.068-0.294-0.12-0.592-0.165-0.892c-0.021-0.138-0.047-0.275-0.063-0.414   c-0.05-0.439-0.082-0.881-0.082-1.327c0-4.544,2.55-8.614,6.653-10.622c0.343-0.168,0.561-0.517,0.561-0.898V33.486   c0-0.382-0.218-0.73-0.561-0.898C72.89,30.58,70.34,26.51,70.34,21.966c0-0.447,0.032-0.889,0.082-1.328   c0.016-0.139,0.042-0.276,0.063-0.414c0.045-0.3,0.098-0.598,0.166-0.893c0.036-0.155,0.076-0.308,0.118-0.46   c0.076-0.28,0.163-0.555,0.26-0.828c0.051-0.144,0.101-0.289,0.157-0.431c0.119-0.299,0.254-0.591,0.397-0.879   c0.051-0.103,0.095-0.209,0.149-0.311c0.205-0.385,0.43-0.761,0.677-1.122c0.044-0.064,0.095-0.123,0.14-0.186   c0.209-0.293,0.43-0.579,0.665-0.853c0.094-0.11,0.196-0.214,0.294-0.32c0.119-0.128,0.246-0.249,0.37-0.373v7.402   c0,0.32,0.153,0.621,0.413,0.81l7.296,5.292c0.175,0.127,0.381,0.19,0.587,0.19c0,0,0,0,0,0c0,0,0,0,0,0   c0.138,0,0.273-0.04,0.403-0.097c0.016-0.007,0.035-0.004,0.051-0.012c0.026-0.013,0.045-0.034,0.07-0.049   c0.021-0.013,0.044-0.018,0.064-0.032l7.286-5.292c0.259-0.188,0.412-0.489,0.412-0.81v-7.433C92.705,15.75,94,18.779,94,21.966   c0,4.544-2.55,8.614-6.653,10.622c-0.343,0.168-0.561,0.517-0.561,0.898v33.027c0,0.382,0.218,0.73,0.561,0.898   C91.45,69.42,94,73.49,94,78.034C94,81.22,92.705,84.249,90.461,86.462z"/>
<path d="M82.188,34.346h-0.119c-1.743,0-3.162,1.419-3.162,3.162v24.984c0,1.743,1.419,3.162,3.162,3.162h0.119   c1.743,0,3.162-1.419,3.162-3.162V37.508C85.351,35.765,83.932,34.346,82.188,34.346z M83.351,62.492   c0,0.641-0.521,1.162-1.162,1.162h-0.119c-0.641,0-1.162-0.521-1.162-1.162V37.508c0-0.641,0.521-1.162,1.162-1.162h0.119   c0.641,0,1.162,0.521,1.162,1.162V62.492z"/>
<path d="M56.758,42.884l-9.028,3.269c-0.095-0.103-0.192-0.199-0.295-0.295l3.268-9.027c0.3-0.824,0.451-1.688,0.451-2.567   c0-4.165-3.395-7.553-7.566-7.553c-2.497,0-4.752,1.171-6.188,3.213c-1.435,2.04-1.773,4.557-0.929,6.906l3.269,9.028   c-0.103,0.096-0.2,0.193-0.295,0.295l-9.028-3.268c-0.822-0.3-1.687-0.451-2.566-0.451c-4.165,0-7.553,3.395-7.553,7.566   c0,2.497,1.171,4.752,3.213,6.188c1.302,0.916,2.798,1.385,4.32,1.385c0.863,0,1.734-0.15,2.585-0.456l9.028-3.269   c0.096,0.103,0.193,0.2,0.295,0.295l-3.268,9.027c-0.3,0.826-0.452,1.689-0.452,2.567c0,4.165,3.395,7.553,7.567,7.553   c2.497,0,4.752-1.171,6.188-3.213c1.435-2.04,1.773-4.557,0.929-6.906l-3.269-9.028c0.103-0.095,0.199-0.192,0.295-0.295   l9.027,3.268c0.822,0.3,1.687,0.451,2.566,0.451c4.165,0,7.554-3.395,7.554-7.566c0-2.497-1.171-4.752-3.213-6.188   C61.623,42.378,59.108,42.039,56.758,42.884z M46.597,52.098c-0.241,0.347-0.565,0.67-0.91,0.911   c-0.926,0.645-2.131,0.806-3.195,0.484c-0.355-0.108-0.694-0.269-1.002-0.484c-0.346-0.24-0.669-0.563-0.911-0.909   c-0.429-0.617-0.656-1.343-0.656-2.099c0-0.189,0.014-0.376,0.042-0.56c0.084-0.552,0.292-1.076,0.614-1.538   c0.242-0.347,0.565-0.67,0.912-0.911c1.23-0.858,2.962-0.859,4.196,0c0.345,0.241,0.669,0.564,0.91,0.911   c0.43,0.615,0.656,1.341,0.656,2.098S47.026,51.482,46.597,52.098z M39.036,31.074c1.056-1.502,2.715-2.363,4.552-2.363   c3.069,0,5.566,2.491,5.566,5.553c0,0.646-0.111,1.28-0.331,1.885l-3.112,8.596c-0.095-0.038-0.197-0.054-0.293-0.086   c-0.105-0.035-0.211-0.065-0.318-0.094c-0.49-0.135-0.993-0.229-1.512-0.229c-0.517,0-1.018,0.093-1.507,0.227   c-0.111,0.03-0.221,0.061-0.331,0.098c-0.094,0.032-0.193,0.047-0.286,0.084l-3.111-8.594   C37.732,34.425,37.981,32.574,39.036,31.074z M29.737,55.234c-1.726,0.619-3.575,0.371-5.075-0.683   c-1.502-1.056-2.363-2.715-2.363-4.552c0-3.069,2.491-5.566,5.553-5.566c0.646,0,1.28,0.111,1.884,0.331l8.597,3.112   c-0.022,0.053-0.029,0.111-0.049,0.166c-0.081,0.22-0.146,0.444-0.199,0.672c-0.023,0.098-0.05,0.194-0.068,0.294   c-0.057,0.326-0.095,0.656-0.095,0.992s0.037,0.666,0.095,0.992c0.018,0.099,0.045,0.195,0.068,0.294   c0.053,0.229,0.118,0.453,0.199,0.673c0.02,0.054,0.027,0.112,0.049,0.165L29.737,55.234z M48.14,68.926   c-1.057,1.502-2.715,2.363-4.552,2.363c-3.07,0-5.567-2.491-5.567-5.553c0-0.645,0.111-1.278,0.332-1.885l3.112-8.596   c0.054,0.022,0.112,0.029,0.166,0.049c0.232,0.085,0.469,0.153,0.711,0.207c0.078,0.017,0.154,0.04,0.233,0.054   c0.332,0.06,0.669,0.099,1.012,0.099c0.343,0,0.679-0.04,1.011-0.099c0.081-0.014,0.158-0.037,0.238-0.055   c0.239-0.054,0.473-0.121,0.703-0.205c0.056-0.02,0.116-0.028,0.171-0.05l3.111,8.594C49.443,65.575,49.194,67.426,48.14,68.926z    M64.877,50c0,3.069-2.491,5.566-5.554,5.566c-0.646,0-1.28-0.111-1.884-0.331l-8.596-3.112c0.022-0.055,0.03-0.116,0.051-0.172   c0.079-0.216,0.142-0.436,0.195-0.66c0.023-0.101,0.052-0.199,0.07-0.301c0.057-0.325,0.094-0.655,0.094-0.991   s-0.037-0.666-0.094-0.991c-0.018-0.102-0.046-0.2-0.07-0.301c-0.052-0.224-0.115-0.444-0.195-0.66   c-0.021-0.056-0.028-0.116-0.051-0.172l8.594-3.111c1.724-0.621,3.575-0.373,5.076,0.683C64.016,46.505,64.877,48.163,64.877,50z"/>
<path d="M43.588,21.207c-15.877,0-28.793,12.916-28.793,28.793s12.916,28.793,28.793,28.793S72.381,65.877,72.381,50   S59.465,21.207,43.588,21.207z M43.588,76.793c-14.773,0-26.793-12.02-26.793-26.793s12.02-26.793,26.793-26.793   S70.381,35.227,70.381,50S58.361,76.793,43.588,76.793z"/>
</g>
</svg>