<?xml version="1.0" encoding="iso-8859-1"?>
<!-- Uploaded to: SVG Repo, www.svgrepo.com, Generator: SVG Repo Mixer Tools -->
<svg fill="#000000" height="800px" width="800px" version="1.1" id="Layer_1" xmlns="http://www.w3.org/2000/svg" xmlns:xlink="http://www.w3.org/1999/xlink" 
	 viewBox="0 0 512.004 512.004" xml:space="preserve">
<g>
	<g>
		<g>
			<path d="M362.698,307.204v-97.57l81.195-48.717c2.56-1.545,4.139-4.318,4.139-7.313V59.738c0-2.995-1.579-5.777-4.139-7.322
				l-85.333-51.2c-2.705-1.621-6.084-1.621-8.789,0l-80.939,48.563L187.893,1.216c-2.705-1.621-6.084-1.621-8.789,0l-85.333,51.2
				c-2.56,1.544-4.139,4.326-4.139,7.322v89.293l-73.003,48.674c-2.372,1.579-3.797,4.241-3.797,7.1v102.4
				c0,2.85,1.425,5.513,3.797,7.1l73.003,48.666v89.301c0,2.995,1.579,5.769,4.139,7.313l85.333,51.2
				c1.357,0.811,2.876,1.22,4.395,1.22s3.038-0.41,4.395-1.22l85.333-51.2c2.56-1.545,4.139-4.318,4.139-7.313v-89.037
				l81.195-48.717C361.12,312.973,362.698,310.199,362.698,307.204z M183.498,194.846l-38.4-23.04l-38.4-23.04V64.567l76.8-46.08
				l76.8,46.08v84.198l-38.4,23.04L183.498,194.846z M345.632,302.366l-76.8,46.08l-38.4-23.04l-38.4-23.04v-92.732l38.4-23.04
				l38.4-23.04l38.4,23.04l38.4,23.04V302.366z"/>
			<path d="M476.565,338.059l-48.273-45.594c-3.285-3.115-8.439-3.115-11.716,0l-48.452,45.764
				c-29.943,29.943-29.943,78.669,0,108.612c14.976,14.967,34.645,22.451,54.306,22.451c19.669,0,39.339-7.484,54.315-22.451
				C506.679,416.899,506.679,368.173,476.565,338.059z"/>
		</g>
	</g>
</g>
</svg>