<?xml version="1.0" encoding="iso-8859-1"?>
<!-- Uploaded to: SVG Repo, www.svgrepo.com, Generator: SVG Repo Mixer Tools -->
<svg fill="#000000" version="1.1" id="Layer_1" xmlns="http://www.w3.org/2000/svg" xmlns:xlink="http://www.w3.org/1999/xlink" 
	 viewBox="0 0 512.001 512.001" xml:space="preserve">
<g>
	<g>
		<path d="M24.192,59.762v303.756h303.756V59.762H24.192z M312.275,347.846H39.863V75.433h272.412V347.846z"/>
	</g>
</g>
<g>
	<g>
		<path d="M176.07,123.781c-48.446,0-87.86,39.414-87.86,87.859c0,48.446,39.414,87.859,87.86,87.859
			c48.445,0,87.859-39.414,87.859-87.859C263.928,163.195,224.515,123.781,176.07,123.781z M184.411,283.331v-15.315h-15.672v15.442
			c-36.375-3.685-64.857-34.487-64.857-71.817c0-37.33,28.482-68.131,64.857-71.817v16.402h15.672v-16.275
			c35.888,4.15,63.846,34.708,63.846,71.69S220.298,279.181,184.411,283.331z"/>
	</g>
</g>
<g>
	<g>
		<rect x="136.353" y="194.881" width="15.672" height="33.433"/>
	</g>
</g>
<g>
	<g>
		<rect x="200.083" y="194.881" width="15.672" height="33.433"/>
	</g>
</g>
<g>
	<g>
		<rect x="191.725" y="316.074" width="16.716" height="15.672"/>
	</g>
</g>
<g>
	<g>
		<rect x="168.74" y="316.074" width="14.627" height="15.672"/>
	</g>
</g>
<g>
	<g>
		<rect x="143.666" y="316.074" width="16.716" height="15.672"/>
	</g>
</g>
<g>
	<g>
		<path d="M470.677,91.773v-0.002V75.778h-15.672v15.994h-54.328V75.778h-15.672v15.994h-48.724v7.836
			c0,19.289,13.777,35.416,32.008,39.067v81.282h111.79v-81.297c18.187-3.685,31.921-19.793,31.921-39.051v-7.836H470.677z
			 M464.409,204.284h-80.447v-64.832h80.447V204.284z M472.156,123.781h-96.028c-10.589,0-19.609-6.842-22.871-16.338h141.769
			C491.764,116.939,482.744,123.781,472.156,123.781z"/>
	</g>
</g>
<g>
	<g>
		<polygon points="351.574,83.091 351.574,36.077 0.532,36.077 0.532,388.164 351.574,388.164 351.574,138.464 335.902,138.464 
			335.902,372.492 16.203,372.492 16.203,51.748 335.902,51.748 335.902,83.091 		"/>
	</g>
</g>
<g>
	<g>
		<rect x="383.963" y="228.313" width="79.402" height="15.672"/>
	</g>
</g>
<g>
	<g>
		<rect x="455.007" y="12.047" width="15.672" height="55.373"/>
	</g>
</g>
<g>
	<g>
		<rect x="385.007" y="12.047" width="15.672" height="55.373"/>
	</g>
</g>
<g>
	<g>
		<rect x="400.679" y="251.298" width="47.015" height="15.672"/>
	</g>
</g>
<g>
	<g>
		<rect x="415.306" y="276.372" width="16.716" height="15.672"/>
	</g>
</g>
<g>
	<g>
		<path d="M431.977,299.602l-15.672,0.127l1.309,160.181c0,13.439-10.845,24.372-24.174,24.372H189.382
			c-6.711,0-12.169-5.39-12.169-12.015s5.46-12.015,12.169-12.015h96.028c15.352,0,27.842-12.648,27.842-28.195
			c0-15.45-12.49-28.019-27.824-28.019l-285.391-0.66L0,419.05l285.41,0.66c6.712,0,12.17,5.538,12.17,12.347
			c0,6.788-5.574,12.524-12.17,12.524h-96.028c-15.352,0-27.841,12.42-27.841,27.686c0,15.266,12.489,27.686,27.841,27.686h204.059
			c21.97,0,39.845-17.964,39.845-40.108L431.977,299.602z"/>
	</g>
</g>
<g>
	<g>
		<rect x="415.306" y="163.538" width="16.716" height="15.672"/>
	</g>
</g>
</svg>